# xmcd
#
# Track frame offsets:
#	150
#	13550
#	25034
#	41139
#	52571
#	66750
#	85879
#	98780
#	110580
#	121121
#	133264
#	146339
#
# Disc length: 2117 seconds
# Revision: 0
# Processed by: cddbd v1.5.2PL0 Copyright (c) Steve Scherf et al.
# Submitted via: dBpowerAMP V12.0
#
DISCID=9508430c
DTITLE=Various Artist - The Famous Lefty Flynn's
DYEAR=2010
DGENRE=Bluegrass
TTITLE0=The Grascals - Last Train To Clarksville
TTITLE1=The Grascals - Son Of A Sawmill Man
TTITLE2=The Grascals - Satan And Grandma
TTITLE3=The Grascals - Everytime
TTITLE4=The Grascals - Out Comes The Sun
TTITLE5=The Grascals - Blue Rock Slide
TTITLE6=The Grascals - The Famous Lefty Flynn's
TTITLE7=The Grascals - My Baby's Waiting On The Other Side
TTITLE8=The Grascals - My Old Friend The Blues
TTITLE9=The Grascals - Up This Hill And Down
TTITLE10=The Grascals with Hank Williams, Jr. - I'm Blue, I'm Lonesome
TTITLE11=The Grascals - Give Me Jesus
EXTD=
EXTT0=
EXTT1=
EXTT2=
EXTT3=
EXTT4=
EXTT5=
EXTT6=
EXTT7=
EXTT8=
EXTT9=
EXTT10=
EXTT11=
PLAYORDER=
